<svg width="100" height="100" viewBox="0 0 100 100" fill="none" xmlns="http://www.w3.org/2000/svg">
<path d="M45.9041 11.725C46.0826 10.7692 46.5898 9.90591 47.3378 9.28467C48.0858 8.66343 49.0275 8.32336 49.9999 8.32336C50.9722 8.32336 51.914 8.66343 52.662 9.28467C53.41 9.90591 53.9172 10.7692 54.0957 11.725L58.4749 34.8833C58.7859 36.5298 59.586 38.0442 60.7708 39.2291C61.9557 40.4139 63.4701 41.214 65.1166 41.525L88.2749 45.9042C89.2307 46.0827 90.094 46.5899 90.7152 47.3379C91.3365 48.0859 91.6765 49.0277 91.6765 50C91.6765 50.9724 91.3365 51.9141 90.7152 52.6621C90.094 53.4101 89.2307 53.9173 88.2749 54.0958L65.1166 58.475C63.4701 58.786 61.9557 59.5862 60.7708 60.771C59.586 61.9558 58.7859 63.4702 58.4749 65.1167L54.0957 88.275C53.9172 89.2308 53.41 90.0941 52.662 90.7153C51.914 91.3366 50.9722 91.6766 49.9999 91.6766C49.0275 91.6766 48.0858 91.3366 47.3378 90.7153C46.5898 90.0941 46.0826 89.2308 45.9041 88.275L41.5249 65.1167C41.2139 63.4702 40.4137 61.9558 39.2289 60.771C38.0441 59.5862 36.5297 58.786 34.8832 58.475L11.7249 54.0958C10.7691 53.9173 9.90578 53.4101 9.28455 52.6621C8.66331 51.9141 8.32324 50.9724 8.32324 50C8.32324 49.0277 8.66331 48.0859 9.28455 47.3379C9.90578 46.5899 10.7691 46.0827 11.7249 45.9042L34.8832 41.525C36.5297 41.214 38.0441 40.4139 39.2289 39.2291C40.4137 38.0442 41.2139 36.5298 41.5249 34.8833L45.9041 11.725Z" stroke="#51A2FF" stroke-width="5" stroke-linecap="round" stroke-linejoin="round"/>
<path d="M83.3335 8.33333V25" stroke="#51A2FF" stroke-width="5" stroke-linecap="round" stroke-linejoin="round"/>
<path d="M91.6667 16.6667H75" stroke="#51A2FF" stroke-width="5" stroke-linecap="round" stroke-linejoin="round"/>
<path d="M16.6668 91.6667C21.2692 91.6667 25.0002 87.9357 25.0002 83.3333C25.0002 78.731 21.2692 75 16.6668 75C12.0645 75 8.3335 78.731 8.3335 83.3333C8.3335 87.9357 12.0645 91.6667 16.6668 91.6667Z" stroke="#51A2FF" stroke-width="5" stroke-linecap="round" stroke-linejoin="round"/>
</svg>
